<svg width="106" height="16" viewBox="0 0 106 16" fill="none" xmlns="http://www.w3.org/2000/svg">
<path d="M12.4 0.959997V15H8.98001V9.22H3.66001V15H0.240005V0.959997H3.66001V6.46H8.98001V0.959997H12.4Z" fill="black"/>
<path d="M25.9889 9.24C25.9889 9.56 25.9689 9.89333 25.9289 10.24H18.1889C18.2422 10.9333 18.4622 11.4667 18.8489 11.84C19.2489 12.2 19.7356 12.38 20.3089 12.38C21.1622 12.38 21.7556 12.02 22.0889 11.3H25.7289C25.5422 12.0333 25.2022 12.6933 24.7089 13.28C24.2289 13.8667 23.6222 14.3267 22.8889 14.66C22.1556 14.9933 21.3356 15.16 20.4289 15.16C19.3356 15.16 18.3622 14.9267 17.5089 14.46C16.6556 13.9933 15.9889 13.3267 15.5089 12.46C15.0289 11.5933 14.7889 10.58 14.7889 9.42C14.7889 8.26 15.0222 7.24666 15.4889 6.38C15.9689 5.51333 16.6356 4.84666 17.4889 4.38C18.3422 3.91333 19.3222 3.68 20.4289 3.68C21.5089 3.68 22.4689 3.90666 23.3089 4.36C24.1489 4.81333 24.8022 5.46 25.2689 6.3C25.7489 7.14 25.9889 8.12 25.9889 9.24ZM22.4889 8.34C22.4889 7.75333 22.2889 7.28666 21.8889 6.94C21.4889 6.59333 20.9889 6.42 20.3889 6.42C19.8156 6.42 19.3289 6.58666 18.9289 6.92C18.5422 7.25333 18.3022 7.72666 18.2089 8.34H22.4889Z" fill="black"/>
<path d="M38.9131 9.24C38.9131 9.56 38.8931 9.89333 38.8531 10.24H31.1131C31.1665 10.9333 31.3865 11.4667 31.7731 11.84C32.1731 12.2 32.6598 12.38 33.2331 12.38C34.0865 12.38 34.6798 12.02 35.0131 11.3H38.6531C38.4665 12.0333 38.1265 12.6933 37.6331 13.28C37.1531 13.8667 36.5465 14.3267 35.8131 14.66C35.0798 14.9933 34.2598 15.16 33.3531 15.16C32.2598 15.16 31.2865 14.9267 30.4331 14.46C29.5798 13.9933 28.9131 13.3267 28.4331 12.46C27.9531 11.5933 27.7131 10.58 27.7131 9.42C27.7131 8.26 27.9465 7.24666 28.4131 6.38C28.8931 5.51333 29.5598 4.84666 30.4131 4.38C31.2665 3.91333 32.2465 3.68 33.3531 3.68C34.4331 3.68 35.3931 3.90666 36.2331 4.36C37.0731 4.81333 37.7265 5.46 38.1931 6.3C38.6731 7.14 38.9131 8.12 38.9131 9.24ZM35.4131 8.34C35.4131 7.75333 35.2131 7.28666 34.8131 6.94C34.4131 6.59333 33.9131 6.42 33.3131 6.42C32.7398 6.42 32.2531 6.58666 31.8531 6.92C31.4665 7.25333 31.2265 7.72666 31.1331 8.34H35.4131Z" fill="black"/>
<path d="M51.8373 9.24C51.8373 9.56 51.8173 9.89333 51.7773 10.24H44.0373C44.0907 10.9333 44.3107 11.4667 44.6973 11.84C45.0973 12.2 45.584 12.38 46.1573 12.38C47.0107 12.38 47.604 12.02 47.9373 11.3H51.5773C51.3907 12.0333 51.0507 12.6933 50.5573 13.28C50.0773 13.8667 49.4707 14.3267 48.7373 14.66C48.004 14.9933 47.184 15.16 46.2773 15.16C45.184 15.16 44.2107 14.9267 43.3573 14.46C42.504 13.9933 41.8373 13.3267 41.3573 12.46C40.8773 11.5933 40.6373 10.58 40.6373 9.42C40.6373 8.26 40.8707 7.24666 41.3373 6.38C41.8173 5.51333 42.484 4.84666 43.3373 4.38C44.1907 3.91333 45.1707 3.68 46.2773 3.68C47.3573 3.68 48.3173 3.90666 49.1573 4.36C49.9973 4.81333 50.6507 5.46 51.1173 6.3C51.5973 7.14 51.8373 8.12 51.8373 9.24ZM48.3373 8.34C48.3373 7.75333 48.1373 7.28666 47.7373 6.94C47.3373 6.59333 46.8373 6.42 46.2373 6.42C45.664 6.42 45.1773 6.58666 44.7773 6.92C44.3907 7.25333 44.1507 7.72666 44.0573 8.34H48.3373Z" fill="black"/>
<path d="M64.7616 9.24C64.7616 9.56 64.7416 9.89333 64.7016 10.24H56.9616C57.0149 10.9333 57.2349 11.4667 57.6216 11.84C58.0216 12.2 58.5082 12.38 59.0816 12.38C59.9349 12.38 60.5282 12.02 60.8616 11.3H64.5016C64.3149 12.0333 63.9749 12.6933 63.4816 13.28C63.0016 13.8667 62.3949 14.3267 61.6616 14.66C60.9282 14.9933 60.1082 15.16 59.2016 15.16C58.1082 15.16 57.1349 14.9267 56.2816 14.46C55.4282 13.9933 54.7616 13.3267 54.2816 12.46C53.8016 11.5933 53.5616 10.58 53.5616 9.42C53.5616 8.26 53.7949 7.24666 54.2616 6.38C54.7416 5.51333 55.4082 4.84666 56.2616 4.38C57.1149 3.91333 58.0949 3.68 59.2016 3.68C60.2816 3.68 61.2416 3.90666 62.0816 4.36C62.9216 4.81333 63.5749 5.46 64.0416 6.3C64.5216 7.14 64.7616 8.12 64.7616 9.24ZM61.2616 8.34C61.2616 7.75333 61.0616 7.28666 60.6616 6.94C60.2616 6.59333 59.7616 6.42 59.1616 6.42C58.5882 6.42 58.1016 6.58666 57.7016 6.92C57.3149 7.25333 57.0749 7.72666 56.9816 8.34H61.2616Z" fill="black"/>
<path d="M77.6858 9.24C77.6858 9.56 77.6658 9.89333 77.6258 10.24H69.8858C69.9391 10.9333 70.1591 11.4667 70.5458 11.84C70.9458 12.2 71.4325 12.38 72.0058 12.38C72.8591 12.38 73.4525 12.02 73.7858 11.3H77.4258C77.2391 12.0333 76.8991 12.6933 76.4058 13.28C75.9258 13.8667 75.3191 14.3267 74.5858 14.66C73.8525 14.9933 73.0325 15.16 72.1258 15.16C71.0325 15.16 70.0591 14.9267 69.2058 14.46C68.3525 13.9933 67.6858 13.3267 67.2058 12.46C66.7258 11.5933 66.4858 10.58 66.4858 9.42C66.4858 8.26 66.7191 7.24666 67.1858 6.38C67.6658 5.51333 68.3325 4.84666 69.1858 4.38C70.0391 3.91333 71.0191 3.68 72.1258 3.68C73.2058 3.68 74.1658 3.90666 75.0058 4.36C75.8458 4.81333 76.4991 5.46 76.9658 6.3C77.4458 7.14 77.6858 8.12 77.6858 9.24ZM74.1858 8.34C74.1858 7.75333 73.9858 7.28666 73.5858 6.94C73.1858 6.59333 72.6858 6.42 72.0858 6.42C71.5125 6.42 71.0258 6.58666 70.6258 6.92C70.2391 7.25333 69.9991 7.72666 69.9058 8.34H74.1858Z" fill="black"/>
<path d="M79.41 9.4C79.41 8.25333 79.6233 7.24666 80.05 6.38C80.49 5.51333 81.0833 4.84666 81.83 4.38C82.5767 3.91333 83.41 3.68 84.33 3.68C85.1167 3.68 85.8033 3.84 86.39 4.16C86.99 4.48 87.45 4.9 87.77 5.42V3.84H91.19V15H87.77V13.42C87.4367 13.94 86.97 14.36 86.37 14.68C85.7833 15 85.0967 15.16 84.31 15.16C83.4033 15.16 82.5767 14.9267 81.83 14.46C81.0833 13.98 80.49 13.3067 80.05 12.44C79.6233 11.56 79.41 10.5467 79.41 9.4ZM87.77 9.42C87.77 8.56666 87.53 7.89333 87.05 7.4C86.5833 6.90666 86.01 6.66 85.33 6.66C84.65 6.66 84.07 6.90666 83.59 7.4C83.1233 7.88 82.89 8.54666 82.89 9.4C82.89 10.2533 83.1233 10.9333 83.59 11.44C84.07 11.9333 84.65 12.18 85.33 12.18C86.01 12.18 86.5833 11.9333 87.05 11.44C87.53 10.9467 87.77 10.2733 87.77 9.42Z" fill="black"/>
<path d="M93.5842 9.4C93.5842 8.25333 93.7976 7.24666 94.2242 6.38C94.6642 5.51333 95.2576 4.84666 96.0042 4.38C96.7509 3.91333 97.5842 3.68 98.5042 3.68C99.2376 3.68 99.9042 3.83333 100.504 4.14C101.118 4.44666 101.598 4.86 101.944 5.38V0.199997H105.364V15H101.944V13.4C101.624 13.9333 101.164 14.36 100.564 14.68C99.9776 15 99.2909 15.16 98.5042 15.16C97.5842 15.16 96.7509 14.9267 96.0042 14.46C95.2576 13.98 94.6642 13.3067 94.2242 12.44C93.7976 11.56 93.5842 10.5467 93.5842 9.4ZM101.944 9.42C101.944 8.56666 101.704 7.89333 101.224 7.4C100.758 6.90666 100.184 6.66 99.5042 6.66C98.8242 6.66 98.2442 6.90666 97.7642 7.4C97.2976 7.88 97.0642 8.54666 97.0642 9.4C97.0642 10.2533 97.2976 10.9333 97.7642 11.44C98.2442 11.9333 98.8242 12.18 99.5042 12.18C100.184 12.18 100.758 11.9333 101.224 11.44C101.704 10.9467 101.944 10.2733 101.944 9.42Z" fill="black"/>
</svg>
