<svg width="137" height="23" viewBox="0 0 137 23" fill="none" xmlns="http://www.w3.org/2000/svg">
<path d="M12.4 2.96V17H8.98V11.22H3.66V17H0.240002V2.96H3.66V8.46H8.98V2.96H12.4Z" fill="black"/>
<path d="M26.9889 11.24C26.9889 11.56 26.9689 11.8933 26.9289 12.24H19.1889C19.2422 12.9333 19.4622 13.4667 19.8489 13.84C20.2489 14.2 20.7356 14.38 21.3089 14.38C22.1622 14.38 22.7556 14.02 23.0889 13.3H26.7289C26.5422 14.0333 26.2022 14.6933 25.7089 15.28C25.2289 15.8667 24.6222 16.3267 23.8889 16.66C23.1556 16.9933 22.3356 17.16 21.4289 17.16C20.3356 17.16 19.3622 16.9267 18.5089 16.46C17.6556 15.9933 16.9889 15.3267 16.5089 14.46C16.0289 13.5933 15.7889 12.58 15.7889 11.42C15.7889 10.26 16.0222 9.24666 16.4889 8.38C16.9689 7.51333 17.6356 6.84666 18.4889 6.38C19.3422 5.91333 20.3222 5.68 21.4289 5.68C22.5089 5.68 23.4689 5.90666 24.3089 6.36C25.1489 6.81333 25.8022 7.46 26.2689 8.3C26.7489 9.14 26.9889 10.12 26.9889 11.24ZM23.4889 10.34C23.4889 9.75333 23.2889 9.28666 22.8889 8.94C22.4889 8.59333 21.9889 8.42 21.3889 8.42C20.8156 8.42 20.3289 8.58666 19.9289 8.92C19.5422 9.25333 19.3022 9.72666 19.2089 10.34H23.4889Z" fill="black"/>
<path d="M40.9131 11.24C40.9131 11.56 40.8931 11.8933 40.8531 12.24H33.1131C33.1665 12.9333 33.3865 13.4667 33.7731 13.84C34.1731 14.2 34.6598 14.38 35.2331 14.38C36.0865 14.38 36.6798 14.02 37.0131 13.3H40.6531C40.4665 14.0333 40.1265 14.6933 39.6331 15.28C39.1531 15.8667 38.5465 16.3267 37.8131 16.66C37.0798 16.9933 36.2598 17.16 35.3531 17.16C34.2598 17.16 33.2865 16.9267 32.4331 16.46C31.5798 15.9933 30.9131 15.3267 30.4331 14.46C29.9531 13.5933 29.7131 12.58 29.7131 11.42C29.7131 10.26 29.9465 9.24666 30.4131 8.38C30.8931 7.51333 31.5598 6.84666 32.4131 6.38C33.2665 5.91333 34.2465 5.68 35.3531 5.68C36.4331 5.68 37.3931 5.90666 38.2331 6.36C39.0731 6.81333 39.7265 7.46 40.1931 8.3C40.6731 9.14 40.9131 10.12 40.9131 11.24ZM37.4131 10.34C37.4131 9.75333 37.2131 9.28666 36.8131 8.94C36.4131 8.59333 35.9131 8.42 35.3131 8.42C34.7398 8.42 34.2531 8.58666 33.8531 8.92C33.4665 9.25333 33.2265 9.72666 33.1331 10.34H37.4131Z" fill="black"/>
<path d="M54.8373 11.24C54.8373 11.56 54.8173 11.8933 54.7773 12.24H47.0373C47.0907 12.9333 47.3107 13.4667 47.6973 13.84C48.0973 14.2 48.584 14.38 49.1573 14.38C50.0107 14.38 50.604 14.02 50.9373 13.3H54.5773C54.3907 14.0333 54.0507 14.6933 53.5573 15.28C53.0773 15.8667 52.4707 16.3267 51.7373 16.66C51.004 16.9933 50.184 17.16 49.2773 17.16C48.184 17.16 47.2107 16.9267 46.3573 16.46C45.504 15.9933 44.8373 15.3267 44.3573 14.46C43.8773 13.5933 43.6373 12.58 43.6373 11.42C43.6373 10.26 43.8707 9.24666 44.3373 8.38C44.8173 7.51333 45.484 6.84666 46.3373 6.38C47.1907 5.91333 48.1707 5.68 49.2773 5.68C50.3573 5.68 51.3173 5.90666 52.1573 6.36C52.9973 6.81333 53.6507 7.46 54.1173 8.3C54.5973 9.14 54.8373 10.12 54.8373 11.24ZM51.3373 10.34C51.3373 9.75333 51.1373 9.28666 50.7373 8.94C50.3373 8.59333 49.8373 8.42 49.2373 8.42C48.664 8.42 48.1773 8.58666 47.7773 8.92C47.3907 9.25333 47.1507 9.72666 47.0573 10.34H51.3373Z" fill="black"/>
<path d="M68.7616 11.24C68.7616 11.56 68.7416 11.8933 68.7016 12.24H60.9616C61.0149 12.9333 61.2349 13.4667 61.6216 13.84C62.0216 14.2 62.5082 14.38 63.0816 14.38C63.9349 14.38 64.5282 14.02 64.8616 13.3H68.5016C68.3149 14.0333 67.9749 14.6933 67.4816 15.28C67.0016 15.8667 66.3949 16.3267 65.6616 16.66C64.9282 16.9933 64.1082 17.16 63.2016 17.16C62.1082 17.16 61.1349 16.9267 60.2816 16.46C59.4282 15.9933 58.7616 15.3267 58.2816 14.46C57.8016 13.5933 57.5616 12.58 57.5616 11.42C57.5616 10.26 57.7949 9.24666 58.2616 8.38C58.7416 7.51333 59.4082 6.84666 60.2616 6.38C61.1149 5.91333 62.0949 5.68 63.2016 5.68C64.2816 5.68 65.2416 5.90666 66.0816 6.36C66.9216 6.81333 67.5749 7.46 68.0416 8.3C68.5216 9.14 68.7616 10.12 68.7616 11.24ZM65.2616 10.34C65.2616 9.75333 65.0616 9.28666 64.6616 8.94C64.2616 8.59333 63.7616 8.42 63.1616 8.42C62.5882 8.42 62.1016 8.58666 61.7016 8.92C61.3149 9.25333 61.0749 9.72666 60.9816 10.34H65.2616Z" fill="black"/>
<path d="M71.4858 11.4C71.4858 10.2533 71.6991 9.24666 72.1258 8.38C72.5658 7.51333 73.1591 6.84666 73.9058 6.38C74.6525 5.91333 75.4858 5.68 76.4058 5.68C77.1925 5.68 77.8791 5.84 78.4658 6.16C79.0658 6.48 79.5258 6.9 79.8458 7.42V5.84H83.2658V17H79.8458V15.42C79.5125 15.94 79.0458 16.36 78.4458 16.68C77.8591 17 77.1725 17.16 76.3858 17.16C75.4791 17.16 74.6525 16.9267 73.9058 16.46C73.1591 15.98 72.5658 15.3067 72.1258 14.44C71.6991 13.56 71.4858 12.5467 71.4858 11.4ZM79.8458 11.42C79.8458 10.5667 79.6058 9.89333 79.1258 9.4C78.6591 8.90666 78.0858 8.66 77.4058 8.66C76.7258 8.66 76.1458 8.90666 75.6658 9.4C75.1991 9.88 74.9658 10.5467 74.9658 11.4C74.9658 12.2533 75.1991 12.9333 75.6658 13.44C76.1458 13.9333 76.7258 14.18 77.4058 14.18C78.0858 14.18 78.6591 13.9333 79.1258 13.44C79.6058 12.9467 79.8458 12.2733 79.8458 11.42Z" fill="black"/>
<path d="M86.66 11.4C86.66 10.2533 86.8733 9.24666 87.3 8.38C87.74 7.51333 88.3333 6.84666 89.08 6.38C89.8267 5.91333 90.66 5.68 91.58 5.68C92.3133 5.68 92.98 5.83333 93.58 6.14C94.1933 6.44666 94.6733 6.86 95.02 7.38V2.2H98.44V17H95.02V15.4C94.7 15.9333 94.24 16.36 93.64 16.68C93.0533 17 92.3667 17.16 91.58 17.16C90.66 17.16 89.8267 16.9267 89.08 16.46C88.3333 15.98 87.74 15.3067 87.3 14.44C86.8733 13.56 86.66 12.5467 86.66 11.4ZM95.02 11.42C95.02 10.5667 94.78 9.89333 94.3 9.4C93.8333 8.90666 93.26 8.66 92.58 8.66C91.9 8.66 91.32 8.90666 90.84 9.4C90.3733 9.88 90.14 10.5467 90.14 11.4C90.14 12.2533 90.3733 12.9333 90.84 13.44C91.32 13.9333 91.9 14.18 92.58 14.18C93.26 14.18 93.8333 13.9333 94.3 13.44C94.78 12.9467 95.02 12.2733 95.02 11.42Z" fill="black"/>
<path d="M104.234 4.68C103.634 4.68 103.141 4.50666 102.754 4.16C102.381 3.8 102.194 3.36 102.194 2.84C102.194 2.30666 102.381 1.86666 102.754 1.52C103.141 1.16 103.634 0.979996 104.234 0.979996C104.821 0.979996 105.301 1.16 105.674 1.52C106.061 1.86666 106.254 2.30666 106.254 2.84C106.254 3.36 106.061 3.8 105.674 4.16C105.301 4.50666 104.821 4.68 104.234 4.68ZM105.934 5.84V17H102.514V5.84H105.934Z" fill="black"/>
<path d="M116.813 5.72C118.119 5.72 119.159 6.14666 119.933 7C120.719 7.84 121.113 9 121.113 10.48V17H117.713V10.94C117.713 10.1933 117.519 9.61333 117.133 9.2C116.746 8.78666 116.226 8.58 115.573 8.58C114.919 8.58 114.399 8.78666 114.013 9.2C113.626 9.61333 113.433 10.1933 113.433 10.94V17H110.013V5.84H113.433V7.32C113.779 6.82666 114.246 6.44 114.833 6.16C115.419 5.86666 116.079 5.72 116.813 5.72Z" fill="black"/>
<path d="M129.329 5.68C130.116 5.68 130.803 5.84 131.389 6.16C131.989 6.48 132.449 6.9 132.769 7.42V5.84H136.189V16.98C136.189 18.0067 135.983 18.9333 135.569 19.76C135.169 20.6 134.549 21.2667 133.709 21.76C132.883 22.2533 131.849 22.5 130.609 22.5C128.956 22.5 127.616 22.1067 126.589 21.32C125.563 20.5467 124.976 19.4933 124.829 18.16H128.209C128.316 18.5867 128.569 18.92 128.969 19.16C129.369 19.4133 129.863 19.54 130.449 19.54C131.156 19.54 131.716 19.3333 132.129 18.92C132.556 18.52 132.769 17.8733 132.769 16.98V15.4C132.436 15.92 131.976 16.3467 131.389 16.68C130.803 17 130.116 17.16 129.329 17.16C128.409 17.16 127.576 16.9267 126.829 16.46C126.083 15.98 125.489 15.3067 125.049 14.44C124.623 13.56 124.409 12.5467 124.409 11.4C124.409 10.2533 124.623 9.24666 125.049 8.38C125.489 7.51333 126.083 6.84666 126.829 6.38C127.576 5.91333 128.409 5.68 129.329 5.68ZM132.769 11.42C132.769 10.5667 132.529 9.89333 132.049 9.4C131.583 8.90666 131.009 8.66 130.329 8.66C129.649 8.66 129.069 8.90666 128.589 9.4C128.123 9.88 127.889 10.5467 127.889 11.4C127.889 12.2533 128.123 12.9333 128.589 13.44C129.069 13.9333 129.649 14.18 130.329 14.18C131.009 14.18 131.583 13.9333 132.049 13.44C132.529 12.9467 132.769 12.2733 132.769 11.42Z" fill="black"/>
</svg>
